<svg xmlns="http://www.w3.org/2000/svg" data-name="Слой 1" viewBox="0 0 128 160" x="0px" y="0px"><title>Pumpkin, Scary, Spooky, Fear, Horror, Monster, Creepy, Halloween, Jack O Lantern, cat</title><path d="M105.89,72.47c-7.3,0-7.3,10.24-7.3,14.61v.42c0,4,0,11.53-1.21,17.82-1.32,6.84-3.62,10.3-6.84,10.3H82.47c0-4.85,0-10.34-.17-14C81.58,87.72,73,77.86,68.67,73.71a37.16,37.16,0,0,0,12.9-9.38l.35.34.07.05.06.06.1.06.17.11.17.09.18.07.19.05.18,0,.2,0h.18l.2,0,.18,0,.19-.06.18-.07.17-.1.16-.11.16-.13.09-.08.05-.07.06-.06a27.24,27.24,0,0,0,5.93-17.75c0-10.37-3.24-18.84-8.6-23.91.49-6.9-4.23-15.55-4.44-15.94a2,2,0,0,0-1.74-1,1.92,1.92,0,0,0-1.75,1L68.16,17.74a18.31,18.31,0,0,0-4.9,1.19c-1.79-.73-5.08-2.2-5.6-3.73-.08-.24-.33-1,.75-2.77A2.85,2.85,0,0,1,62,11a2,2,0,0,0,2.41-.75l3-4.51a2,2,0,0,0,0-2.26c-1.23-1.75-4.72-4.63-9.11-3-5.61,2.1-9.31,6.36-11,12.65-.86,3.17-3.83,4.71-5.15,5.25a17,17,0,0,0-6.75-1.46L28.78,6.79A2,2,0,0,0,25.33,7C25.11,7.37,20.14,17.05,21,24c-4.37,5.22-6.6,12.72-6.6,22.33a28.3,28.3,0,0,0,6.19,18.11l.06.06.07.09.12.1.14.12.22.14.14.08.27.09.12,0a2,2,0,0,0,.41,0h0a2,2,0,0,0,.35,0l.11,0,.24-.07.13-.06.2-.1.13-.09.1-.06.07-.06.08-.06.51-.49A40.55,40.55,0,0,0,39.69,74.94a81.65,81.65,0,0,0-4,26v25a2,2,0,0,0,2,2H94c7,0,19.54-13.8,19.54-41.28C113.55,80.8,111.17,72.47,105.89,72.47Zm-30-60.26a31.83,31.83,0,0,1,2.23,7.64A18,18,0,0,0,72.63,18Zm-24.77,2c1.36-5,4.16-8.3,8.55-9.94a3.52,3.52,0,0,1,3.52.61l-1.36,2A6.8,6.8,0,0,0,55,10.36c-1.37,2.28-1.73,4.28-1.1,6.12A6.47,6.47,0,0,0,55.52,19l-1.3.4a6.67,6.67,0,0,0-4.28.3c-.52-.23-1.09-.45-1.69-.65A10.8,10.8,0,0,0,51.1,14.18ZM27.41,12l3.53,5.46a17.75,17.75,0,0,0-4.42,1.85c-.49.29-1,.6-1.44.94A35.42,35.42,0,0,1,27.41,12Zm-3,14.2a17,17,0,0,1,4.12-3.43A13.26,13.26,0,0,1,34.4,21a12.56,12.56,0,0,1,2.2.05,6.84,6.84,0,0,0-2.27,3.58,2,2,0,1,0,3.89.95c.54-2.22,4.09-3,4.17-3h.06A6.59,6.59,0,0,1,44,22.42h.68a10.73,10.73,0,0,1,4.41,1.27,2,2,0,0,0,1.82,0,3.53,3.53,0,0,1,1.68-.48,3.22,3.22,0,0,1,.92.17,4,4,0,0,1,1.92,2.58,2,2,0,0,0,2,1.68l.32,0a2,2,0,0,0,1.65-2.29,7.09,7.09,0,0,0-1.12-2.8,5.81,5.81,0,0,1,.72-.06,13.23,13.23,0,0,1,3.73.56l.11,0,.16,0,.19,0h.15a2,2,0,0,0,.5-.08l.09,0,.13,0a14.09,14.09,0,0,1,5.36-1.25,14.3,14.3,0,0,1,9.34,3.43l.08.07c5,4.22,8,11.95,8,21.58a23.59,23.59,0,0,1-3.73,13.45l-6-5.81a2,2,0,0,0-2.79,0l-6.24,6.06-6.24-6.06a2,2,0,0,0-2.79,0l-6.25,6.06-6.25-6.06a2,2,0,0,0-2.78,0l-6.25,6.06-6.25-6.06a2,2,0,0,0-2.78,0l-6,5.81a24.18,24.18,0,0,1-4-13.82C18.45,37.49,20.46,30.72,24.42,26.24ZM27,61.39l2.87-2.78,6.25,6.06a2,2,0,0,0,2.78,0l6.25-6.06,5.44,5.28a2.83,2.83,0,0,1-2.64,1.84,2,2,0,1,0,0,4,6.81,6.81,0,0,0,4.83-2,6.81,6.81,0,0,0,4.83,2,2,2,0,1,0,0-4A2.83,2.83,0,0,1,55,63.9l5.45-5.29,6.24,6.06a2,2,0,0,0,2.79,0l6.24-6.06,3,2.93c-3.89,4.74-9.38,7.78-14.35,9.69h0a52.46,52.46,0,0,1-12,3.06C52.21,74.3,36,72.24,27,61.39ZM52.35,78.3a47.53,47.53,0,0,0,12.23-2.91c2.94,2.56,13,12.32,13.73,26.41.32,6.09.13,17.61,0,22.2H61.13c.1-4.18.6-4.38,2-4.38h6.58a2,2,0,0,0,.15-4c-.09,0-8.63-.78-9.72-5.27a2,2,0,0,0-3.89.94,8.73,8.73,0,0,0,3.63,5.08c-2.3,1.36-2.69,4.38-2.76,7.62H48c.41-4.86,2.29-5.77,2.61-5.88a1.82,1.82,0,0,0,1.7-2V91.47a2,2,0,0,0-4,0v23.33c-1.65,1-3.89,3.35-4.31,9.21H39.77c.22-5.66,1.39-5.68,2-5.68a2,2,0,1,0,0-4,5.91,5.91,0,0,0-2,.33V101a78.71,78.71,0,0,1,3.73-24.64A38.47,38.47,0,0,0,52.35,78.3ZM94,124H82.35c0-1.12.05-2.63.08-4.38h8.11c5.4,0,9-4.56,10.76-13.54,1.29-6.67,1.29-14.42,1.29-18.58v-.42c0-10.61,2.4-10.61,3.3-10.61,1.6,0,3.66,5,3.66,10.24C109.55,114.27,97.17,124,94,124Z"/><path d="M33.63,52.85a10.87,10.87,0,0,0,4.2.87c5.26,0,9.34-4.06,11-6.72a2,2,0,0,0-.64-2.76l-17-10.55a2,2,0,0,0-3,1.18C28.07,35.44,24.53,49.07,33.63,52.85Zm5.51-3.28V43.31l5.06,3.14A9.82,9.82,0,0,1,39.14,49.57ZM31.59,38.63l3.55,2.21v8.31C31.17,47.47,31.17,42,31.59,38.63Z"/><path d="M66.69,53.71a10.88,10.88,0,0,0,4.2-.87c9.11-3.78,5.57-17.41,5.41-18a2,2,0,0,0-3-1.18l-17,10.55A2,2,0,0,0,55.68,47C57.35,49.66,61.43,53.71,66.69,53.71Zm2.67-4.56h0v-8.3l3.59-2.23C73.35,42,73.36,47.49,69.36,49.15Zm-4-5.81v6.22a9.85,9.85,0,0,1-5-3.11Z"/><text x="0" y="143" fill="#000000" font-size="5px" font-weight="bold" font-family="'Helvetica Neue', Helvetica, Arial-Unicode, Arial, Sans-serif">Created by LAFS</text><text x="0" y="148" fill="#000000" font-size="5px" font-weight="bold" font-family="'Helvetica Neue', Helvetica, Arial-Unicode, Arial, Sans-serif">from the Noun Project</text></svg>